<svg viewBox="0 0 48 48" fill="none" xmlns="http://www.w3.org/2000/svg">
    <path d="M24 4C24 4 18 12 18 18C18 21.3 20.7 24 24 24C27.3 24 30 21.3 30 18C30 12 24 4 24 4Z" fill="#e85b2e"/>
    <path d="M24 14C24 14 21 18 21 21C21 22.7 22.3 24 24 24C25.7 24 27 22.7 27 21C27 18 24 14 24 14Z" fill="#ffdfb8"/>
    <path d="M8 24L24 12L40 24V42C40 43.1 39.1 44 38 44H10C8.9 44 8 43.1 8 42V24Z" stroke="#ffdfb8" stroke-width="2.5" fill="none"/>
    <path d="M18 44V32H30V44" stroke="#ffdfb8" stroke-width="2.5" fill="none"/>
</svg>
